<svg xmlns="http://www.w3.org/2000/svg" xmlns:xlink="http://www.w3.org/1999/xlink" width="30.123" height="30.123" viewBox="0 0 30.123 30.123"><defs><filter id="a" x="0" y="0" width="30.123" height="30.123" filterUnits="userSpaceOnUse"><feOffset dy="3" input="SourceAlpha"/><feGaussianBlur stdDeviation="3" result="b"/><feFlood flood-opacity="0.161"/><feComposite operator="in" in2="b"/><feComposite in="SourceGraphic"/></filter></defs><g transform="translate(-649.42 -362.42)"><g transform="matrix(1, 0, 0, 1, 649.42, 362.42)" filter="url(#a)"><path d="M6.062,0A6.062,6.062,0,1,1,0,6.062,6.062,6.062,0,0,1,6.062,0Z" transform="translate(9 6)" fill="#e9387f"/></g><path d="M.5-1.671a1.881,1.881,0,0,1-.13-.142.188.188,0,0,1-.051-.111.117.117,0,0,1,.046-.091A.391.391,0,0,1,.479-2.08a.668.668,0,0,1,.138-.038.8.8,0,0,1,.125-.012A.152.152,0,0,1,.832-2.1a.7.7,0,0,1,.084.073,5.34,5.34,0,0,1,.583.69q.261.369.484.731A19.906,19.906,0,0,1,2.977-2.9,15.271,15.271,0,0,1,4.255-4.983a.427.427,0,0,1,.214-.147A.976.976,0,0,1,4.8-5.182a.168.168,0,0,1,.092.022.071.071,0,0,1,.034.063.211.211,0,0,1-.01.07.3.3,0,0,1-.048.077q-.379.5-.737,1.053t-.682,1.16q-.325.61-.615,1.28T2.3-.048a.068.068,0,0,1-.038.036.34.34,0,0,1-.075.026.757.757,0,0,1-.1.015Q2.03.034,1.976.034A.623.623,0,0,1,1.832.019a.145.145,0,0,1-.1-.067q-.164-.28-.3-.494t-.284-.4Q1-1.125.849-1.3T.5-1.671Z" transform="translate(661.975 377.114)" fill="#fff"/></g></svg>